<mxfile host="Electron" agent="Mozilla/5.0 (Macintosh; Intel Mac OS X 10_15_7) AppleWebKit/537.36 (KHTML, like Gecko) draw.io/26.0.16 Chrome/132.0.6834.196 Electron/34.2.0 Safari/537.36" version="26.0.16">
  <diagram name="Page-1" id="koppeltaal-optie1">
    <mxGraphModel dx="1114" dy="878" grid="1" gridSize="10" guides="1" tooltips="1" connect="1" arrows="1" fold="1" page="1" pageScale="1" pageWidth="827" pageHeight="1169" math="0" shadow="0">
      <root>
        <mxCell id="0" />
        <mxCell id="1" parent="0" />
        <mxCell id="container-right" value="" style="rounded=0;whiteSpace=wrap;html=1;dashed=1;dashPattern=5 5;fillColor=none;strokeColor=#000000;" parent="1" vertex="1">
          <mxGeometry x="40" y="40" width="760" height="370" as="geometry" />
        </mxCell>
        <mxCell id="label-zorgaanbieder" value="Zorgaanbieder" style="text;html=1;strokeColor=none;fillColor=none;align=center;verticalAlign=middle;whiteSpace=wrap;rounded=0;fontSize=20;fontStyle=0;" parent="1" vertex="1">
          <mxGeometry x="350" y="60" width="120" height="30" as="geometry" />
        </mxCell>
        <mxCell id="dva" value="DVA" style="rounded=1;whiteSpace=wrap;html=1;fillColor=#B3D9FF;strokeColor=#000000;fontSize=18;arcSize=15;" parent="1" vertex="1">
          <mxGeometry x="250" y="170" width="120" height="50" as="geometry" />
        </mxCell>
        <mxCell id="pgo" value="PGO" style="rounded=1;whiteSpace=wrap;html=1;fillColor=#B3D9FF;strokeColor=#000000;fontSize=18;arcSize=15;" parent="1" vertex="1">
          <mxGeometry x="430" y="170" width="120" height="50" as="geometry" />
        </mxCell>
        <mxCell id="module" value="Module" style="rounded=0;whiteSpace=wrap;html=1;fillColor=#FFD700;strokeColor=#000000;fontSize=18;" parent="1" vertex="1">
          <mxGeometry x="340" y="320" width="120" height="50" as="geometry" />
        </mxCell>
        <mxCell id="taken-arrow" value="taken" style="edgeStyle=orthogonalEdgeStyle;rounded=0;orthogonalLoop=1;jettySize=auto;html=1;exitX=1;exitY=0.5;exitDx=0;exitDy=0;entryX=0;entryY=0.5;entryDx=0;entryDy=0;strokeColor=#000000;fontSize=12;" parent="1" source="dva" target="pgo" edge="1">
          <mxGeometry relative="1" as="geometry" />
        </mxCell>
        <mxCell id="smart-fhir-arrow" value="SMART on FHIR" style="rounded=0;orthogonalLoop=1;jettySize=auto;html=1;exitX=0.75;exitY=1;exitDx=0;exitDy=0;entryX=0.25;entryY=0;entryDx=0;entryDy=0;strokeColor=#000000;strokeWidth=2;fontSize=11;startArrow=classic;startFill=1;" parent="1" source="dva" target="module" edge="1">
          <mxGeometry x="-0.2" y="-10" relative="1" as="geometry">
            <mxPoint as="offset" />
          </mxGeometry>
        </mxCell>
        <mxCell id="launch-arrow-solid" value="launch" style="rounded=0;orthogonalLoop=1;jettySize=auto;html=1;exitX=0.25;exitY=1;exitDx=0;exitDy=0;strokeColor=#000000;strokeWidth=2;fontSize=11;entryX=0.75;entryY=0;entryDx=0;entryDy=0;" parent="1" source="pgo" target="module" edge="1">
          <mxGeometry x="0.1" y="10" relative="1" as="geometry">
            <mxPoint as="offset" />
            <mxPoint x="430" y="310" as="targetPoint" />
          </mxGeometry>
        </mxCell>
        <mxCell id="launch-arrow-dotted" value="launch" style="rounded=0;orthogonalLoop=1;jettySize=auto;html=1;exitX=0.25;exitY=1;exitDx=0;exitDy=0;entryX=0.008;entryY=0.367;entryDx=0;entryDy=0;strokeColor=#000000;dashed=1;dashPattern=3 3;fontSize=11;entryPerimeter=0;edgeStyle=orthogonalEdgeStyle;" parent="1" source="dva" target="module" edge="1">
          <mxGeometry x="-0.1" y="5" relative="1" as="geometry">
            <mxPoint as="offset" />
          </mxGeometry>
        </mxCell>
        <mxCell id="ITI2Gz6NsMx6yye5Es3I-1" value="Maakt taak" style="shape=callout;whiteSpace=wrap;html=1;perimeter=calloutPerimeter;fillColor=#f5f5f5;strokeColor=#666666;fontColor=#333333;" parent="1" vertex="1">
          <mxGeometry x="260" y="100" width="120" height="80" as="geometry" />
        </mxCell>
      </root>
    </mxGraphModel>
  </diagram>
</mxfile>
